<?xml version="1.0" encoding="UTF-8" standalone="no"?>
<svg
   xmlns:dc="http://purl.org/dc/elements/1.1/"
   xmlns:cc="http://creativecommons.org/ns#"
   xmlns:rdf="http://www.w3.org/1999/02/22-rdf-syntax-ns#"
   xmlns:svg="http://www.w3.org/2000/svg"
   xmlns="http://www.w3.org/2000/svg"
   viewBox="0 0 64 64"
   height="64"
   width="64"
   xml:space="preserve"
   id="svg2"
   version="1.1"><metadata
     id="metadata8"><rdf:RDF><cc:Work
         rdf:about=""><dc:format>image/svg+xml</dc:format><dc:type
           rdf:resource="http://purl.org/dc/dcmitype/StillImage" /></cc:Work></rdf:RDF></metadata><defs
     id="defs6"><clipPath
       id="clipPath20"
       clipPathUnits="userSpaceOnUse"><path
         id="path18"
         d="M 440,0 H 40 v 300 h 400 z" /></clipPath><clipPath
       id="clipPath32"
       clipPathUnits="userSpaceOnUse"><path
         id="path30"
         d="M 440,300 H 40 v 179.996 h 400 z" /></clipPath><clipPath
       id="clipPath44"
       clipPathUnits="userSpaceOnUse"><path
         id="path42"
         d="M 440,300 H 40 v 179.996 h 400 z" /></clipPath><clipPath
       id="clipPath50"
       clipPathUnits="userSpaceOnUse"><path
         id="path48"
         d="M 440,50 C 440,22.3867 417.617,0 390,0 H 90 C 62.3828,0 40,22.3867 40,50 v 380 c 0,27.613 22.3828,50 50,50 H 330 L 440,370 Z" /></clipPath><clipPath
       id="clipPath70"
       clipPathUnits="userSpaceOnUse"><path
         id="path68"
         d="M 360,80 H 120 v 160 h 240 z" /></clipPath></defs><g
     transform="matrix(1.3333333,0,0,-1.3333333,0,64)"
     id="g10"><g
       transform="scale(0.1)"
       id="g12"><g
         id="g14"><g
           clip-path="url(#clipPath20)"
           id="g16"><path
             id="path22"
             style="fill:#f6f6f6;fill-opacity:1;fill-rule:nonzero;stroke:none"
             d="M 90,5 C 65.1836,5 45,25.1875 45,50 v 380 c 0,24.816 20.1836,45 45,45 H 327.93 L 435,367.93 V 50 C 435,25.1875 414.813,5 390,5 H 90" /><path
             id="path24"
             style="fill:#e0e0e0;fill-opacity:1;fill-rule:nonzero;stroke:none"
             d="M 330,480 H 90 C 62.3828,480 40,457.613 40,430 V 50 C 40,22.3867 62.3828,0 90,0 h 300 c 27.617,0 50,22.3867 50,50 V 370 Z M 325.859,470 430,365.859 V 50 C 430,27.9453 412.063,10 390,10 H 90 C 67.9414,10 50,27.9453 50,50 v 380 c 0,22.055 17.9414,40 40,40 h 235.859" /></g></g><g
         id="g26"><g
           clip-path="url(#clipPath32)"
           id="g28"><path
             id="path34"
             style="fill:#74bd71;fill-opacity:1;fill-rule:nonzero;stroke:none"
             d="M 90,5 C 65.1836,5 45,25.1875 45,50 v 380 c 0,24.816 20.1836,45 45,45 H 327.93 L 435,367.93 V 50 C 435,25.1875 414.813,5 390,5 H 90" /><path
             id="path36"
             style="fill:#6aad68;fill-opacity:1;fill-rule:nonzero;stroke:none"
             d="M 330,480 H 90 C 62.3828,480 40,457.613 40,430 V 50 C 40,22.3867 62.3828,0 90,0 h 300 c 27.617,0 50,22.3867 50,50 V 370 Z M 325.859,470 430,365.859 V 50 C 430,27.9453 412.063,10 390,10 H 90 C 67.9414,10 50,27.9453 50,50 v 380 c 0,22.055 17.9414,40 40,40 h 235.859" /></g></g><g
         id="g38"><g
           clip-path="url(#clipPath44)"
           id="g40"><g
             clip-path="url(#clipPath50)"
             id="g46"><path
               id="path52"
               style="fill:#6aad68;fill-opacity:1;fill-rule:nonzero;stroke:none"
               d="m 344.355,384.973 96.79,-96.793 v 96.793 z" /><path
               id="path54"
               style="fill:#b9deb8;fill-opacity:1;fill-rule:nonzero;stroke:none"
               d="m 440,370 h -60 c -27.617,0 -50,22.387 -50,50 v 60 H 440 V 370" /></g></g></g><path
         id="path56"
         style="fill:#ffffff;fill-opacity:1;fill-rule:nonzero;stroke:none"
         d="m 110.254,417.699 h 12.305 v -40.867 c 0,-5.305 -1.465,-9.566 -4.395,-12.789 -2.93,-3.223 -6.758,-4.832 -11.504,-4.832 -3.437,0 -6.504,1.008 -9.2069,3.031 -2.7187,2.02 -4.7968,5.113 -6.2617,9.274 l 9.0426,6.851 v -0.176 c 0.059,-0.027 0.352,-0.671 0.879,-1.929 0.528,-1.262 1.192,-2.395 2,-3.41 0.813,-1.004 1.684,-1.512 2.617,-1.512 1.379,0 2.473,0.57 3.293,1.711 0.821,1.144 1.231,2.668 1.231,4.57 v 40.078" /><path
         id="path58"
         style="fill:#ffffff;fill-opacity:1;fill-rule:nonzero;stroke:none"
         d="m 146.688,407.328 v -14.765 h 4.835 c 2.082,0 3.86,0.746 5.34,2.242 1.477,1.492 2.219,3.265 2.219,5.316 0,2.344 -0.84,4.16 -2.5,5.449 -1.68,1.289 -4.043,1.934 -7.129,1.934 z m -12.176,10.371 h 19.734 c 5.305,0 9.582,-1.547 12.832,-4.633 3.254,-3.093 4.875,-7.156 4.875,-12.199 0,-3.308 -0.801,-6.453 -2.39,-9.422 -1.594,-2.976 -4.004,-5.195 -7.227,-6.66 -3.227,-1.465 -5.981,-2.226 -8.266,-2.285 l -7.207,-0.176 V 360 h -12.351 v 57.699" /><path
         id="path60"
         style="fill:#ffffff;fill-opacity:1;fill-rule:nonzero;stroke:none"
         d="m 231.063,405.176 -8.258,-7.735 c -1.731,2.989 -3.867,5.219 -6.418,6.7 -2.547,1.48 -5.215,2.222 -7.996,2.222 -4.512,0 -8.43,-1.715 -11.75,-5.14 -3.34,-3.43 -5,-7.473 -5,-12.129 0,-4.953 1.66,-9.153 5,-12.59 3.32,-3.445 7.324,-5.164 12.011,-5.164 2.547,0 5,0.64 7.364,1.93 2.351,1.293 4.257,3.707 5.683,7.253 h -13.664 v 11.25 h 26.633 v -7.472 c 0,-3.836 -1.316,-7.961 -3.953,-12.367 -2.641,-4.414 -6.106,-7.637 -10.422,-9.668 -4.297,-2.039 -8.652,-3.055 -13.047,-3.055 -7.969,0 -14.687,2.883 -20.176,8.656 -5.468,5.77 -8.215,12.906 -8.215,21.403 0,8.054 2.825,14.941 8.469,20.652 5.625,5.715 12.422,8.57 20.364,8.57 10.132,0 17.925,-4.441 23.375,-13.316" /><path
         id="path62"
         style="fill:#e0e0e0;fill-opacity:1;fill-rule:nonzero;stroke:none"
         d="M 360,240 H 120 V 80 H 360 Z M 330,210 V 110 H 150 v 100 h 180" /><g
         id="g64"><g
           clip-path="url(#clipPath70)"
           id="g66"><path
             id="path72"
             style="fill:#e0e0e0;fill-opacity:1;fill-rule:nonzero;stroke:none"
             d="M 380,63.3008 H 100 v 30 h 30 l 40.215,48.2582 c 2.578,3.089 6.289,5.019 10.305,5.343 4.011,0.328 7.996,-0.972 11.035,-3.609 l 30.34,-26.273 c 2.089,-1.817 4.851,-2.672 7.609,-2.379 2.762,0.297 5.269,1.722 6.934,3.945 l 40.386,53.852 c 2.981,3.964 7.715,6.207 12.668,5.984 4.949,-0.219 9.473,-2.863 12.078,-7.074 L 350,93.3008 h 30 v -30" /></g></g><path
         id="path74"
         style="fill:#e0e0e0;fill-opacity:1;fill-rule:nonzero;stroke:none"
         d="m 190,180 c 0,11.039 8.953,20 20,20 11.047,0 20,-8.961 20,-20 0,-11.039 -8.953,-20 -20,-20 -11.047,0 -20,8.961 -20,20" /></g></g></svg>