<?xml version="1.0" encoding="UTF-8" standalone="no"?>
<svg
   xmlns:dc="http://purl.org/dc/elements/1.1/"
   xmlns:cc="http://creativecommons.org/ns#"
   xmlns:rdf="http://www.w3.org/1999/02/22-rdf-syntax-ns#"
   xmlns:svg="http://www.w3.org/2000/svg"
   xmlns="http://www.w3.org/2000/svg"
   viewBox="0 0 64 64"
   height="64"
   width="64"
   xml:space="preserve"
   id="svg2"
   version="1.1"><metadata
     id="metadata8"><rdf:RDF><cc:Work
         rdf:about=""><dc:format>image/svg+xml</dc:format><dc:type
           rdf:resource="http://purl.org/dc/dcmitype/StillImage" /></cc:Work></rdf:RDF></metadata><defs
     id="defs6"><clipPath
       id="clipPath20"
       clipPathUnits="userSpaceOnUse"><path
         id="path18"
         d="M 40,0 H 440 V 300 H 40 Z" /></clipPath><clipPath
       id="clipPath38"
       clipPathUnits="userSpaceOnUse"><path
         id="path36"
         d="M 40,300 H 440 V 479.996 H 40 Z" /></clipPath><clipPath
       id="clipPath50"
       clipPathUnits="userSpaceOnUse"><path
         id="path48"
         d="M 40,300 H 440 V 479.996 H 40 Z" /></clipPath><clipPath
       id="clipPath56"
       clipPathUnits="userSpaceOnUse"><path
         id="path54"
         d="M 440,50 C 440,22.3867 417.617,0 390,0 H 90 C 62.3828,0 40,22.3867 40,50 v 380 c 0,27.613 22.3828,50 50,50 H 330 L 440,370 V 50" /></clipPath></defs><g
     transform="matrix(1.3333333,0,0,-1.3333333,0,64)"
     id="g10"><g
       transform="scale(0.1)"
       id="g12"><g
         id="g14"><g
           clip-path="url(#clipPath20)"
           id="g16"><path
             id="path22"
             style="fill:#f6f6f6;fill-opacity:1;fill-rule:nonzero;stroke:none"
             d="M 90,5 C 65.1836,5 45,25.1875 45,50 v 380 c 0,24.813 20.1836,45 45,45 H 327.93 L 435,367.93 V 50 C 435,25.1875 414.813,5 390,5 H 90" /><path
             id="path24"
             style="fill:#e0e0e0;fill-opacity:1;fill-rule:nonzero;stroke:none"
             d="M 330,480 H 90 C 62.3828,480 40,457.613 40,430 V 50 C 40,22.3867 62.3828,0 90,0 h 300 c 27.617,0 50,22.3867 50,50 V 370 Z M 325.859,470 430,365.859 V 50 C 430,27.9453 412.063,10 390,10 H 90 C 67.9414,10 50,27.9453 50,50 v 380 c 0,22.055 17.9414,40 40,40 h 235.859" /></g></g><path
         id="path26"
         style="fill:#d8d8d8;fill-opacity:1;fill-rule:nonzero;stroke:none"
         d="m 357.5,150 h -135 c -8.281,0 -15,6.715 -15,15 0,8.285 6.719,15 15,15 h 135 c 8.281,0 15,-6.715 15,-15 0,-8.285 -6.719,-15 -15,-15" /><path
         id="path28"
         style="fill:#d8d8d8;fill-opacity:1;fill-rule:nonzero;stroke:none"
         d="m 357.5,90 h -135 c -8.281,0 -15,6.7148 -15,15 0,8.285 6.719,15 15,15 h 135 c 8.281,0 15,-6.715 15,-15 0,-8.2852 -6.719,-15 -15,-15" /><path
         id="path30"
         style="fill:#d8d8d8;fill-opacity:1;fill-rule:nonzero;stroke:none"
         d="m 362.5,210 h -245 c -8.281,0 -15,6.715 -15,15 0,8.285 6.719,15 15,15 h 245 c 8.281,0 15,-6.715 15,-15 0,-8.285 -6.719,-15 -15,-15" /><g
         id="g32"><g
           clip-path="url(#clipPath38)"
           id="g34"><path
             id="path40"
             style="fill:#d84953;fill-opacity:1;fill-rule:nonzero;stroke:none"
             d="M 90,5 C 65.1836,5 45,25.1875 45,50 v 380 c 0,24.816 20.1836,45 45,45 H 327.93 L 435,367.93 V 50 C 435,25.1875 414.813,5 390,5 H 90" /><path
             id="path42"
             style="fill:#c4434c;fill-opacity:1;fill-rule:nonzero;stroke:none"
             d="M 330,480 H 90 C 62.3828,480 40,457.613 40,430 V 50 C 40,22.3867 62.3828,0 90,0 h 300 c 27.617,0 50,22.3867 50,50 V 370 Z M 325.859,470 430,365.859 V 50 C 430,27.9453 412.063,10 390,10 H 90 C 67.9414,10 50,27.9453 50,50 v 380 c 0,22.055 17.9414,40 40,40 h 235.859" /></g></g><g
         id="g44"><g
           clip-path="url(#clipPath50)"
           id="g46"><g
             clip-path="url(#clipPath56)"
             id="g52"><path
               id="path58"
               style="fill:#c4434c;fill-opacity:1;fill-rule:nonzero;stroke:none"
               d="m 344.355,384.973 96.79,-96.793 v 96.793 z" /><path
               id="path60"
               style="fill:#eca4a9;fill-opacity:1;fill-rule:nonzero;stroke:none"
               d="m 440,370 h -60 c -27.617,0 -50,22.387 -50,50 v 60 H 440 V 370" /></g></g></g><path
         id="path62"
         style="fill:#ffffff;fill-opacity:1;fill-rule:nonzero;stroke:none"
         d="m 108.281,407.328 v -14.765 h 4.832 c 2.082,0 3.86,0.746 5.344,2.242 1.477,1.492 2.219,3.265 2.219,5.316 0,2.344 -0.832,4.16 -2.512,5.449 -1.66,1.289 -4.043,1.934 -7.109,1.934 z M 96.1133,417.699 H 115.84 c 5.305,0 9.582,-1.547 12.832,-4.633 3.254,-3.093 4.883,-7.156 4.883,-12.199 0,-3.308 -0.801,-6.453 -2.403,-9.422 -1.601,-2.976 -4.004,-5.195 -7.226,-6.66 -3.223,-1.465 -5.977,-2.226 -8.262,-2.285 l -7.207,-0.176 V 360 H 96.1133 v 57.699" /><path
         id="path64"
         style="fill:#ffffff;fill-opacity:1;fill-rule:nonzero;stroke:none"
         d="M 155.879,406.801 V 371.16 h 4.922 c 5.097,0 9.277,1.395 12.558,4.176 3.282,2.785 4.922,7.43 4.922,13.934 0,3.777 -0.781,7.121 -2.363,10.035 -1.582,2.918 -3.887,4.894 -6.875,5.937 -3.008,1.039 -5.879,1.559 -8.594,1.559 z m -12.527,10.898 h 19.683 c 8.41,0 15.18,-2.652 20.305,-7.953 5.129,-5.301 7.695,-12.289 7.695,-20.961 0,-8.703 -2.656,-15.676 -7.93,-20.918 C 177.813,362.621 170.77,360 161.98,360 h -18.628 v 57.699" /><path
         id="path66"
         style="fill:#ffffff;fill-opacity:1;fill-rule:nonzero;stroke:none"
         d="m 200.828,417.699 h 32.473 v -11.16 h -20.117 v -11.777 h 20.117 v -11.25 H 213.262 V 360 h -12.434 v 57.699" /><path
         id="path68"
         style="fill:#e0e0e0;fill-opacity:1;fill-rule:nonzero;stroke:none"
         d="m 180,105 c 0,-8.2852 -6.719,-15 -15,-15 h -50 c -8.281,0 -15,6.7148 -15,15 v 60 c 0,8.285 6.719,15 15,15 h 50 c 8.281,0 15,-6.715 15,-15 v -60" /></g></g></svg>