<?xml version="1.0" encoding="UTF-8" standalone="no"?>
<svg
   xmlns:dc="http://purl.org/dc/elements/1.1/"
   xmlns:cc="http://creativecommons.org/ns#"
   xmlns:rdf="http://www.w3.org/1999/02/22-rdf-syntax-ns#"
   xmlns:svg="http://www.w3.org/2000/svg"
   xmlns="http://www.w3.org/2000/svg"
   viewBox="0 0 64 64"
   height="64"
   width="64"
   xml:space="preserve"
   id="svg2"
   version="1.1"><metadata
     id="metadata8"><rdf:RDF><cc:Work
         rdf:about=""><dc:format>image/svg+xml</dc:format><dc:type
           rdf:resource="http://purl.org/dc/dcmitype/StillImage" /></cc:Work></rdf:RDF></metadata><defs
     id="defs6"><clipPath
       id="clipPath20"
       clipPathUnits="userSpaceOnUse"><path
         id="path18"
         d="M 440,0 H 40 v 300 h 400 z" /></clipPath><clipPath
       id="clipPath32"
       clipPathUnits="userSpaceOnUse"><path
         id="path30"
         d="M 439.996,300 H 40 v 179.996 h 399.996 z" /></clipPath><clipPath
       id="clipPath44"
       clipPathUnits="userSpaceOnUse"><path
         id="path42"
         d="M 439.996,300 H 40 v 179.996 h 399.996 z" /></clipPath><clipPath
       id="clipPath50"
       clipPathUnits="userSpaceOnUse"><path
         id="path48"
         d="M 440,50 C 440,22.3867 417.613,0 390,0 H 90 C 62.3867,0 40,22.3867 40,50 v 380 c 0,27.613 22.3867,50 50,50 H 329.996 L 440,370 Z" /></clipPath></defs><g
     transform="matrix(1.3333333,0,0,-1.3333333,0,64)"
     id="g10"><g
       transform="scale(0.1)"
       id="g12"><g
         id="g14"><g
           clip-path="url(#clipPath20)"
           id="g16"><path
             id="path22"
             style="fill:#f6f6f6;fill-opacity:1;fill-rule:nonzero;stroke:none"
             d="M 90,5 C 65.1836,5 45,25.1875 45,50 v 380 c 0,24.816 20.1836,45 45,45 H 327.926 L 435,367.93 V 50 C 435,25.1875 414.813,5 390,5 H 90" /><path
             id="path24"
             style="fill:#e0e0e0;fill-opacity:1;fill-rule:nonzero;stroke:none"
             d="M 329.996,480 H 90 C 62.3867,480 40,457.613 40,430 V 50 C 40,22.3867 62.3867,0 90,0 h 300 c 27.613,0 50,22.3867 50,50 V 370 Z M 325.855,470 430,365.859 V 50 C 430,27.9453 412.055,10 390,10 H 90 C 67.9453,10 50,27.9453 50,50 v 380 c 0,22.055 17.9453,40 40,40 h 235.855" /></g></g><g
         id="g26"><g
           clip-path="url(#clipPath32)"
           id="g28"><path
             id="path34"
             style="fill:#f78852;fill-opacity:1;fill-rule:nonzero;stroke:none"
             d="M 90,5 C 65.1836,5 45,25.1875 45,50 v 380 c 0,24.816 20.1836,45 45,45 H 327.926 L 435,367.93 V 50 C 435,25.1875 414.813,5 390,5 H 90" /><path
             id="path36"
             style="fill:#e27140;fill-opacity:1;fill-rule:nonzero;stroke:none"
             d="M 329.996,480 H 90 C 62.3867,480 40,457.613 40,430 V 50 C 40,22.3867 62.3867,0 90,0 h 300 c 27.613,0 50,22.3867 50,50 V 370 Z M 325.855,470 430,365.859 V 50 C 430,27.9453 412.055,10 390,10 H 90 C 67.9453,10 50,27.9453 50,50 v 380 c 0,22.055 17.9453,40 40,40 h 235.855" /></g></g><g
         id="g38"><g
           clip-path="url(#clipPath44)"
           id="g40"><g
             clip-path="url(#clipPath50)"
             id="g46"><path
               id="path52"
               style="fill:#e27140;fill-opacity:1;fill-rule:nonzero;stroke:none"
               d="m 344.352,384.973 96.793,-96.793 v 96.793 z" /><path
               id="path54"
               style="fill:#fbc4a8;fill-opacity:1;fill-rule:nonzero;stroke:none"
               d="m 440,370 h -60 c -27.613,0 -50,22.387 -50,50 v 60 H 440 V 370" /></g></g></g><path
         id="path56"
         style="fill:#ffffff;fill-opacity:1;fill-rule:nonzero;stroke:none"
         d="m 108.281,407.328 v -14.765 h 4.832 c 2.082,0 3.86,0.746 5.344,2.242 1.477,1.492 2.219,3.265 2.219,5.316 0,2.344 -0.836,4.16 -2.508,5.449 -1.668,1.289 -4.043,1.934 -7.117,1.934 z M 96.1094,417.699 H 115.84 c 5.305,0 9.582,-1.547 12.832,-4.633 3.254,-3.093 4.879,-7.156 4.879,-12.199 0,-3.308 -0.801,-6.453 -2.399,-9.422 -1.597,-2.976 -4.004,-5.195 -7.226,-6.66 -3.223,-1.465 -5.977,-2.226 -8.262,-2.285 l -7.207,-0.176 V 360 H 96.1094 v 57.699" /><path
         id="path58"
         style="fill:#ffffff;fill-opacity:1;fill-rule:nonzero;stroke:none"
         d="m 156.051,407.328 v -14.765 h 4.832 c 2.082,0 3.859,0.746 5.344,2.242 1.472,1.492 2.214,3.265 2.214,5.316 0,2.344 -0.836,4.16 -2.503,5.449 -1.668,1.289 -4.043,1.934 -7.122,1.934 z m -12.172,10.371 h 19.73 c 5.301,0 9.579,-1.547 12.832,-4.633 3.25,-3.093 4.875,-7.156 4.875,-12.199 0,-3.308 -0.796,-6.453 -2.394,-9.422 -1.598,-2.976 -4.004,-5.195 -7.227,-6.66 -3.222,-1.465 -5.976,-2.226 -8.261,-2.285 l -7.207,-0.176 V 360 h -12.348 v 57.699" /><path
         id="path60"
         style="fill:#ffffff;fill-opacity:1;fill-rule:nonzero;stroke:none"
         d="M 187.426,417.699 H 226.23 V 405.441 H 213.004 V 360 h -12.438 v 45.441 h -13.14 v 12.258" /><path
         id="path62"
         style="fill:#e0e0e0;fill-opacity:1;fill-rule:nonzero;stroke:none"
         d="m 230,80 c -38.66,0 -70,31.34 -70,70 0,35.258 26.09,64.34 60,69.203 v 30.293 C 169.469,244.477 130,201.855 130,150 130,94.7695 174.77,50 230,50 c 51.855,0 94.477,39.4688 99.496,90 H 299.203 C 294.34,106.09 265.258,80 230,80" /><path
         id="path64"
         style="fill:#e0e0e0;fill-opacity:1;fill-rule:nonzero;stroke:none"
         d="m 240,160 v 59.203 c -3.277,0.469 -6.598,0.797 -10,0.797 -3.402,0 -6.723,-0.328 -10,-0.797 V 160 h 20" /><path
         id="path66"
         style="fill:#e0e0e0;fill-opacity:1;fill-rule:nonzero;stroke:none"
         d="m 230,220 c 3.402,0 6.723,-0.328 10,-0.797 v 30.293 c -3.289,0.328 -6.625,0.504 -10,0.504 -3.375,0 -6.711,-0.176 -10,-0.504 v -30.293 c 3.277,0.469 6.598,0.797 10,0.797" /><path
         id="path68"
         style="fill:#e0e0e0;fill-opacity:1;fill-rule:nonzero;stroke:none"
         d="m 240,140 h 59.203 c 0.469,3.277 0.797,6.598 0.797,10 0,3.402 -0.328,6.723 -0.797,10 H 240 v -20" /><path
         id="path70"
         style="fill:#e0e0e0;fill-opacity:1;fill-rule:nonzero;stroke:none"
         d="m 329.496,160 h -30.293 c 0.469,-3.277 0.797,-6.598 0.797,-10 0,-3.402 -0.328,-6.723 -0.797,-10 h 30.293 c 0.328,3.293 0.504,6.625 0.504,10 0,3.375 -0.176,6.711 -0.504,10" /><path
         id="path72"
         style="fill:#e0e0e0;fill-opacity:1;fill-rule:nonzero;stroke:none"
         d="m 220,140 h 20 v 20 h -20 v -20" /><path
         id="path74"
         style="fill:#e0e0e0;fill-opacity:1;fill-rule:nonzero;stroke:none"
         d="m 280,200 v 47.063 c 22.566,-6.719 40.344,-24.497 47.063,-47.063 z m 77.992,0 C 350.039,239.18 319.18,270.039 280,277.992 273.535,279.301 266.852,280 260,280 v -30 -50 -20 h 20 50 30 c 0,6.852 -0.699,13.535 -2.008,20" /></g></g></svg>