<?xml version="1.0" encoding="UTF-8" standalone="no"?>
<svg
   xmlns:dc="http://purl.org/dc/elements/1.1/"
   xmlns:cc="http://creativecommons.org/ns#"
   xmlns:rdf="http://www.w3.org/1999/02/22-rdf-syntax-ns#"
   xmlns:svg="http://www.w3.org/2000/svg"
   xmlns="http://www.w3.org/2000/svg"
   viewBox="0 0 64 64"
   height="64"
   width="64"
   xml:space="preserve"
   id="svg2"
   version="1.1"><metadata
     id="metadata8"><rdf:RDF><cc:Work
         rdf:about=""><dc:format>image/svg+xml</dc:format><dc:type
           rdf:resource="http://purl.org/dc/dcmitype/StillImage" /></cc:Work></rdf:RDF></metadata><defs
     id="defs6"><clipPath
       id="clipPath20"
       clipPathUnits="userSpaceOnUse"><path
         id="path18"
         d="M 440,0 H 40 v 300 h 400 z" /></clipPath><clipPath
       id="clipPath32"
       clipPathUnits="userSpaceOnUse"><path
         id="path30"
         d="M 439.996,300 H 40 v 179.996 h 399.996 z" /></clipPath><clipPath
       id="clipPath44"
       clipPathUnits="userSpaceOnUse"><path
         id="path42"
         d="M 439.996,300 H 40 v 179.996 h 399.996 z" /></clipPath><clipPath
       id="clipPath50"
       clipPathUnits="userSpaceOnUse"><path
         id="path48"
         d="M 440,50 C 440,22.3867 417.613,0 390,0 H 90 C 62.3867,0 40,22.3867 40,50 v 380 c 0,27.613 22.3867,50 50,50 H 329.996 L 440,370 Z" /></clipPath></defs><g
     transform="matrix(1.3333333,0,0,-1.3333333,0,64)"
     id="g10"><g
       transform="scale(0.1)"
       id="g12"><g
         id="g14"><g
           clip-path="url(#clipPath20)"
           id="g16"><path
             id="path22"
             style="fill:#f6f6f6;fill-opacity:1;fill-rule:nonzero;stroke:none"
             d="M 90,5 C 65.1836,5 45,25.1875 45,50 v 380 c 0,24.816 20.1836,45 45,45 H 327.926 L 435,367.93 V 50 C 435,25.1875 414.813,5 390,5 H 90" /><path
             id="path24"
             style="fill:#e0e0e0;fill-opacity:1;fill-rule:nonzero;stroke:none"
             d="M 329.996,480 H 90 C 62.3867,480 40,457.613 40,430 V 50 C 40,22.3867 62.3867,0 90,0 h 300 c 27.613,0 50,22.3867 50,50 V 370 Z M 325.855,470 430,365.859 V 50 C 430,27.9453 412.055,10 390,10 H 90 C 67.9453,10 50,27.9453 50,50 v 380 c 0,22.055 17.9453,40 40,40 h 235.855" /></g></g><g
         id="g26"><g
           clip-path="url(#clipPath32)"
           id="g28"><path
             id="path34"
             style="fill:#68ab46;fill-opacity:1;fill-rule:nonzero;stroke:none"
             d="M 90,5 C 65.1836,5 45,25.1875 45,50 v 380 c 0,24.816 20.1836,45 45,45 H 327.926 L 435,367.93 V 50 C 435,25.1875 414.813,5 390,5 H 90" /><path
             id="path36"
             style="fill:#5c973e;fill-opacity:1;fill-rule:nonzero;stroke:none"
             d="M 329.996,480 H 90 C 62.3867,480 40,457.613 40,430 V 50 C 40,22.3867 62.3867,0 90,0 h 300 c 27.613,0 50,22.3867 50,50 V 370 Z M 325.855,470 430,365.859 V 50 C 430,27.9453 412.055,10 390,10 H 90 C 67.9453,10 50,27.9453 50,50 v 380 c 0,22.055 17.9453,40 40,40 h 235.855" /></g></g><g
         id="g38"><g
           clip-path="url(#clipPath44)"
           id="g40"><g
             clip-path="url(#clipPath50)"
             id="g46"><path
               id="path52"
               style="fill:#5c973e;fill-opacity:1;fill-rule:nonzero;stroke:none"
               d="m 344.352,384.973 96.793,-96.793 v 96.793 z" /><path
               id="path54"
               style="fill:#b3d5a2;fill-opacity:1;fill-rule:nonzero;stroke:none"
               d="m 440,370 h -60 c -27.613,0 -50,22.387 -50,50 v 60 H 440 V 370" /></g></g></g><path
         id="path56"
         style="fill:#e0e0e0;fill-opacity:1;fill-rule:nonzero;stroke:none"
         d="m 220,120 v 30 h 130 v -30 z m -90,30 h 70 v -30 h -70 z m 70,60 v -30 h -70 v 30 z m 150,0 V 180 H 220 v 30 z M 100,240 V 90 H 380 V 240 H 100" /><path
         id="path58"
         style="fill:#ffffff;fill-opacity:1;fill-rule:nonzero;stroke:none"
         d="m 93.5156,417.699 h 13.2184 l 11.586,-17.644 11.993,17.644 h 12.863 L 124.91,390.273 144.977,360 H 132.129 L 118.406,380.508 104.75,360 H 91.625 l 20.273,30.234 -18.3824,27.465" /><path
         id="path60"
         style="fill:#ffffff;fill-opacity:1;fill-rule:nonzero;stroke:none"
         d="m 153.238,417.699 h 12.348 v -45.261 h 17.008 V 360 h -29.356 v 57.699" /><path
         id="path62"
         style="fill:#ffffff;fill-opacity:1;fill-rule:nonzero;stroke:none"
         d="m 223.77,412.473 -7.735,-8.485 c -4.07,2.403 -7.004,3.606 -8.789,3.606 -1.379,0 -2.562,-0.524 -3.558,-1.559 -0.997,-1.039 -1.497,-2.281 -1.497,-3.715 0,-2.843 2.579,-5.304 7.735,-7.382 3.781,-1.614 6.637,-3.075 8.57,-4.372 1.934,-1.308 3.551,-3.113 4.856,-5.429 1.3,-2.313 1.957,-4.821 1.957,-7.516 0,-4.949 -1.996,-9.258 -6,-12.918 -3.996,-3.664 -8.723,-5.492 -14.172,-5.492 -5.977,0 -11.879,2.809 -17.711,8.434 l 8.176,9.539 c 3.66,-3.782 7.089,-5.668 10.281,-5.668 1.496,0 2.93,0.664 4.308,1.992 1.375,1.332 2.067,2.726 2.067,4.187 0,3.008 -3.18,5.664 -9.539,7.961 -3.633,1.321 -6.211,2.563 -7.735,3.719 -1.523,1.156 -2.804,2.844 -3.839,5.059 -1.047,2.207 -1.567,4.472 -1.567,6.789 0,5.125 1.672,9.285 5.012,12.48 3.34,3.192 7.707,4.789 13.098,4.789 6.382,0 11.746,-2.008 16.082,-6.019" /></g></g></svg>